<svg width="479" height="109" viewBox="0 0 479 109" fill="none" xmlns="http://www.w3.org/2000/svg">
<path d="M68.7835 82.68H25.0075L16.9435 105H3.11951L39.4075 5.20798H54.5275L90.6715 105H76.8475L68.7835 82.68ZM65.0395 72.024L46.8955 21.336L28.7515 72.024H65.0395Z" stroke="black" stroke-width="5" stroke-linecap="round" stroke-linejoin="round"/>
<path d="M158.903 53.304C162.551 53.88 165.863 55.368 168.839 57.768C171.911 60.168 174.311 63.144 176.039 66.696C177.863 70.248 178.775 74.04 178.775 78.072C178.775 83.16 177.479 87.768 174.887 91.896C172.295 95.928 168.503 99.144 163.511 101.544C158.615 103.848 152.807 105 146.087 105H108.647V4.63198H144.647C151.463 4.63198 157.271 5.78398 162.071 8.08798C166.871 10.296 170.471 13.32 172.871 17.16C175.271 21 176.471 25.32 176.471 30.12C176.471 36.072 174.839 41.016 171.575 44.952C168.407 48.792 164.183 51.576 158.903 53.304ZM121.751 47.976H143.783C149.927 47.976 154.679 46.536 158.039 43.656C161.399 40.776 163.079 36.792 163.079 31.704C163.079 26.616 161.399 22.632 158.039 19.752C154.679 16.872 149.831 15.432 143.495 15.432H121.751V47.976ZM144.935 94.2C151.463 94.2 156.551 92.664 160.199 89.592C163.847 86.52 165.671 82.248 165.671 76.776C165.671 71.208 163.751 66.84 159.911 63.672C156.071 60.408 150.935 58.776 144.503 58.776H121.751V94.2H144.935Z" stroke="black" stroke-width="5" stroke-linecap="round" stroke-linejoin="round"/>
<path d="M244.623 106.008C235.311 106.008 226.815 103.848 219.135 99.528C211.455 95.112 205.359 89.016 200.847 81.24C196.431 73.368 194.223 64.536 194.223 54.744C194.223 44.952 196.431 36.168 200.847 28.392C205.359 20.52 211.455 14.424 219.135 10.104C226.815 5.68798 235.311 3.47998 244.623 3.47998C254.031 3.47998 262.575 5.68798 270.255 10.104C277.935 14.424 283.983 20.472 288.399 28.248C292.815 36.024 295.023 44.856 295.023 54.744C295.023 64.632 292.815 73.464 288.399 81.24C283.983 89.016 277.935 95.112 270.255 99.528C262.575 103.848 254.031 106.008 244.623 106.008ZM244.623 94.632C251.631 94.632 257.919 93 263.487 89.736C269.151 86.472 273.567 81.816 276.735 75.768C279.999 69.72 281.631 62.712 281.631 54.744C281.631 46.68 279.999 39.672 276.735 33.72C273.567 27.672 269.199 23.016 263.631 19.752C258.063 16.488 251.727 14.856 244.623 14.856C237.519 14.856 231.183 16.488 225.615 19.752C220.047 23.016 215.631 27.672 212.367 33.72C209.199 39.672 207.615 46.68 207.615 54.744C207.615 62.712 209.199 69.72 212.367 75.768C215.631 81.816 220.047 86.472 225.615 89.736C231.279 93 237.615 94.632 244.623 94.632Z" stroke="black" stroke-width="5" stroke-linecap="round" stroke-linejoin="round"/>
<path d="M327.298 4.63198V68.136C327.298 77.064 329.458 83.688 333.778 88.008C338.194 92.328 344.29 94.488 352.066 94.488C359.746 94.488 365.746 92.328 370.066 88.008C374.482 83.688 376.69 77.064 376.69 68.136V4.63198H389.794V67.992C389.794 76.344 388.114 83.4 384.754 89.16C381.394 94.824 376.834 99.048 371.074 101.832C365.41 104.616 359.026 106.008 351.922 106.008C344.818 106.008 338.386 104.616 332.626 101.832C326.962 99.048 322.45 94.824 319.09 89.16C315.826 83.4 314.194 76.344 314.194 67.992V4.63198H327.298Z" stroke="black" stroke-width="5" stroke-linecap="round" stroke-linejoin="round"/>
<path d="M475.59 4.63198V15.288H448.23V105H435.126V15.288H407.622V4.63198H475.59Z" stroke="black" stroke-width="5" stroke-linecap="round" stroke-linejoin="round"/>
</svg>
