<svg width="698" height="109" viewBox="0 0 698 109" fill="none" xmlns="http://www.w3.org/2000/svg">
<path d="M3.32916 54.744C3.32916 44.952 5.53719 36.168 9.95319 28.392C14.3692 20.52 20.3692 14.376 27.9532 9.96C35.6332 5.544 44.1292 3.336 53.4412 3.336C64.3852 3.336 73.9372 5.976 82.0972 11.256C90.2572 16.536 96.2092 24.024 99.9532 33.72H84.2572C81.4732 27.672 77.4412 23.016 72.1612 19.752C66.9772 16.488 60.7372 14.856 53.4412 14.856C46.4332 14.856 40.1452 16.488 34.5772 19.752C29.0092 23.016 24.6412 27.672 21.4732 33.72C18.3052 39.672 16.7212 46.68 16.7212 54.744C16.7212 62.712 18.3052 69.72 21.4732 75.768C24.6412 81.72 29.0092 86.328 34.5772 89.592C40.1452 92.856 46.4332 94.488 53.4412 94.488C60.7372 94.488 66.9772 92.904 72.1612 89.736C77.4412 86.472 81.4732 81.816 84.2572 75.768H99.9532C96.2092 85.368 90.2572 92.808 82.0972 98.088C73.9372 103.272 64.3852 105.864 53.4412 105.864C44.1292 105.864 35.6332 103.704 27.9532 99.384C20.3692 94.968 14.3692 88.872 9.95319 81.096C5.53719 73.32 3.32916 64.536 3.32916 54.744Z" stroke="black" stroke-width="5" stroke-linecap="round" stroke-linejoin="round"/>
<path d="M167.124 106.008C157.812 106.008 149.316 103.848 141.636 99.528C133.956 95.112 127.86 89.016 123.348 81.24C118.932 73.368 116.724 64.536 116.724 54.744C116.724 44.952 118.932 36.168 123.348 28.392C127.86 20.52 133.956 14.424 141.636 10.104C149.316 5.688 157.812 3.48 167.124 3.48C176.532 3.48 185.076 5.688 192.756 10.104C200.436 14.424 206.484 20.472 210.9 28.248C215.316 36.024 217.524 44.856 217.524 54.744C217.524 64.632 215.316 73.464 210.9 81.24C206.484 89.016 200.436 95.112 192.756 99.528C185.076 103.848 176.532 106.008 167.124 106.008ZM167.124 94.632C174.132 94.632 180.42 93 185.988 89.736C191.652 86.472 196.068 81.816 199.236 75.768C202.5 69.72 204.132 62.712 204.132 54.744C204.132 46.68 202.5 39.672 199.236 33.72C196.068 27.672 191.7 23.016 186.132 19.752C180.564 16.488 174.228 14.856 167.124 14.856C160.02 14.856 153.684 16.488 148.116 19.752C142.548 23.016 138.132 27.672 134.868 33.72C131.7 39.672 130.116 46.68 130.116 54.744C130.116 62.712 131.7 69.72 134.868 75.768C138.132 81.816 142.548 86.472 148.116 89.736C153.78 93 160.116 94.632 167.124 94.632Z" stroke="black" stroke-width="5" stroke-linecap="round" stroke-linejoin="round"/>
<path d="M315.895 105H302.791L250.087 25.08V105H236.983V4.488H250.087L302.791 84.264V4.488H315.895V105Z" stroke="black" stroke-width="5" stroke-linecap="round" stroke-linejoin="round"/>
<path d="M402.169 4.632V15.288H374.809V105H361.705V15.288H334.201V4.632H402.169Z" stroke="black" stroke-width="5" stroke-linecap="round" stroke-linejoin="round"/>
<path d="M479.787 82.68H436.011L427.947 105H414.123L450.411 5.208H465.531L501.675 105H487.851L479.787 82.68ZM476.043 72.024L457.899 21.336L439.755 72.024H476.043Z" stroke="black" stroke-width="5" stroke-linecap="round" stroke-linejoin="round"/>
<path d="M514.754 54.744C514.754 44.952 516.962 36.168 521.378 28.392C525.794 20.52 531.794 14.376 539.378 9.96C547.058 5.544 555.554 3.336 564.866 3.336C575.81 3.336 585.362 5.976 593.522 11.256C601.682 16.536 607.634 24.024 611.378 33.72H595.682C592.898 27.672 588.866 23.016 583.586 19.752C578.402 16.488 572.162 14.856 564.866 14.856C557.858 14.856 551.57 16.488 546.002 19.752C540.434 23.016 536.066 27.672 532.898 33.72C529.73 39.672 528.146 46.68 528.146 54.744C528.146 62.712 529.73 69.72 532.898 75.768C536.066 81.72 540.434 86.328 546.002 89.592C551.57 92.856 557.858 94.488 564.866 94.488C572.162 94.488 578.402 92.904 583.586 89.736C588.866 86.472 592.898 81.816 595.682 75.768H611.378C607.634 85.368 601.682 92.808 593.522 98.088C585.362 103.272 575.81 105.864 564.866 105.864C555.554 105.864 547.058 103.704 539.378 99.384C531.794 94.968 525.794 88.872 521.378 81.096C516.962 73.32 514.754 64.536 514.754 54.744Z" stroke="black" stroke-width="5" stroke-linecap="round" stroke-linejoin="round"/>
<path d="M694.821 4.632V15.288H667.461V105H654.357V15.288H626.853V4.632H694.821Z" stroke="black" stroke-width="5" stroke-linecap="round" stroke-linejoin="round"/>
</svg>
