<svg width="1134" height="259" viewBox="0 0 1134 259" fill="none" xmlns="http://www.w3.org/2000/svg">
<path d="M21.192 15.288V48.84H57.768V59.64H21.192V94.2H62.088V105H8.08802V4.488H62.088V15.288H21.192Z" stroke="black" stroke-width="5" stroke-linecap="round" stroke-linejoin="round"/>
<path d="M115.324 4.632C126.268 4.632 135.724 6.696 143.692 10.824C151.756 14.856 157.9 20.664 162.124 28.248C166.444 35.832 168.604 44.76 168.604 55.032C168.604 65.304 166.444 74.232 162.124 81.816C157.9 89.304 151.756 95.064 143.692 99.096C135.724 103.032 126.268 105 115.324 105H84.0761V4.632H115.324ZM115.324 94.2C128.284 94.2 138.172 90.792 144.988 83.976C151.804 77.064 155.212 67.416 155.212 55.032C155.212 42.552 151.756 32.808 144.844 25.8C138.028 18.792 128.188 15.288 115.324 15.288H97.1801V94.2H115.324Z" stroke="black" stroke-width="5" stroke-linecap="round" stroke-linejoin="round"/>
<path d="M200.865 4.632V68.136C200.865 77.064 203.025 83.688 207.345 88.008C211.761 92.328 217.857 94.488 225.633 94.488C233.313 94.488 239.313 92.328 243.633 88.008C248.049 83.688 250.257 77.064 250.257 68.136V4.632H263.361V67.992C263.361 76.344 261.681 83.4 258.321 89.16C254.961 94.824 250.401 99.048 244.641 101.832C238.977 104.616 232.593 106.008 225.489 106.008C218.385 106.008 211.953 104.616 206.193 101.832C200.529 99.048 196.017 94.824 192.657 89.16C189.393 83.4 187.761 76.344 187.761 67.992V4.632H200.865Z" stroke="black" stroke-width="5" stroke-linecap="round" stroke-linejoin="round"/>
<path d="M282.485 54.744C282.485 44.952 284.693 36.168 289.109 28.392C293.525 20.52 299.525 14.376 307.109 9.96C314.789 5.54399 323.285 3.33599 332.597 3.33599C343.541 3.33599 353.093 5.976 361.253 11.256C369.413 16.536 375.365 24.024 379.109 33.72H363.413C360.629 27.672 356.597 23.016 351.317 19.752C346.133 16.488 339.893 14.856 332.597 14.856C325.589 14.856 319.301 16.488 313.733 19.752C308.165 23.016 303.797 27.672 300.629 33.72C297.461 39.672 295.877 46.68 295.877 54.744C295.877 62.712 297.461 69.72 300.629 75.768C303.797 81.72 308.165 86.328 313.733 89.592C319.301 92.856 325.589 94.488 332.597 94.488C339.893 94.488 346.133 92.904 351.317 89.736C356.597 86.472 360.629 81.816 363.413 75.768H379.109C375.365 85.368 369.413 92.808 361.253 98.088C353.093 103.272 343.541 105.864 332.597 105.864C323.285 105.864 314.789 103.704 307.109 99.384C299.525 94.968 293.525 88.872 289.109 81.096C284.693 73.32 282.485 64.536 282.485 54.744Z" stroke="black" stroke-width="5" stroke-linecap="round" stroke-linejoin="round"/>
<path d="M460.103 82.68H416.327L408.263 105H394.439L430.727 5.208H445.847L481.991 105H468.167L460.103 82.68ZM456.359 72.024L438.215 21.336L420.071 72.024H456.359Z" stroke="black" stroke-width="5" stroke-linecap="round" stroke-linejoin="round"/>
<path d="M561.742 4.632V15.288H534.382V105H521.278V15.288H493.774V4.632H561.742Z" stroke="black" stroke-width="5" stroke-linecap="round" stroke-linejoin="round"/>
<path d="M593.136 4.632V105H580.032V4.632H593.136Z" stroke="black" stroke-width="5" stroke-linecap="round" stroke-linejoin="round"/>
<path d="M663.134 106.008C653.822 106.008 645.326 103.848 637.646 99.528C629.966 95.112 623.87 89.016 619.358 81.24C614.942 73.368 612.734 64.536 612.734 54.744C612.734 44.952 614.942 36.168 619.358 28.392C623.87 20.52 629.966 14.424 637.646 10.104C645.326 5.688 653.822 3.48 663.134 3.48C672.542 3.48 681.086 5.688 688.766 10.104C696.446 14.424 702.494 20.472 706.91 28.248C711.326 36.024 713.534 44.856 713.534 54.744C713.534 64.632 711.326 73.464 706.91 81.24C702.494 89.016 696.446 95.112 688.766 99.528C681.086 103.848 672.542 106.008 663.134 106.008ZM663.134 94.632C670.142 94.632 676.43 93 681.998 89.736C687.662 86.472 692.078 81.816 695.246 75.768C698.51 69.72 700.142 62.712 700.142 54.744C700.142 46.68 698.51 39.672 695.246 33.72C692.078 27.672 687.71 23.016 682.142 19.752C676.574 16.488 670.238 14.856 663.134 14.856C656.03 14.856 649.694 16.488 644.126 19.752C638.558 23.016 634.142 27.672 630.878 33.72C627.71 39.672 626.126 46.68 626.126 54.744C626.126 62.712 627.71 69.72 630.878 75.768C634.142 81.816 638.558 86.472 644.126 89.736C649.79 93 656.126 94.632 663.134 94.632Z" stroke="black" stroke-width="5" stroke-linecap="round" stroke-linejoin="round"/>
<path d="M811.905 105H798.801L746.097 25.08V105H732.993V4.488H746.097L798.801 84.264V4.488H811.905V105Z" stroke="black" stroke-width="5" stroke-linecap="round" stroke-linejoin="round"/>
<path d="M953.994 105L940.89 91.752C935.994 96.84 930.762 100.632 925.194 103.128C919.626 105.528 913.338 106.728 906.33 106.728C899.418 106.728 893.274 105.48 887.898 102.984C882.618 100.488 878.49 96.936 875.514 92.328C872.634 87.72 871.194 82.344 871.194 76.2C871.194 69.192 873.162 63.048 877.098 57.768C881.13 52.392 887.034 48.168 894.81 45.096C891.738 41.448 889.53 38.088 888.186 35.016C886.842 31.944 886.17 28.584 886.17 24.936C886.17 20.712 887.226 16.92 889.338 13.56C891.546 10.104 894.666 7.416 898.698 5.49599C902.73 3.576 907.386 2.616 912.666 2.616C917.85 2.616 922.362 3.62399 926.202 5.63999C930.042 7.65599 932.922 10.488 934.842 14.136C936.762 17.688 937.626 21.672 937.434 26.088H924.33C924.426 22.152 923.322 19.08 921.018 16.872C918.714 14.568 915.738 13.416 912.09 13.416C908.25 13.416 905.13 14.52 902.73 16.728C900.426 18.84 899.274 21.576 899.274 24.936C899.274 27.816 900.042 30.6 901.578 33.288C903.21 35.976 905.898 39.288 909.642 43.224L939.594 73.32L942.186 69.288L951.978 52.872H966.09L954.282 73.32C952.65 76.2 950.73 79.224 948.522 82.392L971.13 105H953.994ZM906.33 95.496C911.514 95.496 916.17 94.488 920.298 92.472C924.522 90.456 928.506 87.336 932.25 83.112L902.73 53.448C890.442 58.152 884.298 65.592 884.298 75.768C884.298 81.432 886.314 86.136 890.346 89.88C894.474 93.624 899.802 95.496 906.33 95.496Z" stroke="black" stroke-width="5" stroke-linecap="round" stroke-linejoin="round"/>
<path d="M3.19202 204.744C3.19202 194.952 5.40002 186.168 9.81602 178.392C14.232 170.52 20.232 164.376 27.816 159.96C35.496 155.544 43.992 153.336 53.304 153.336C64.248 153.336 73.8 155.976 81.96 161.256C90.12 166.536 96.072 174.024 99.816 183.72H84.12C81.336 177.672 77.304 173.016 72.024 169.752C66.84 166.488 60.6 164.856 53.304 164.856C46.296 164.856 40.008 166.488 34.44 169.752C28.872 173.016 24.504 177.672 21.336 183.72C18.168 189.672 16.584 196.68 16.584 204.744C16.584 212.712 18.168 219.72 21.336 225.768C24.504 231.72 28.872 236.328 34.44 239.592C40.008 242.856 46.296 244.488 53.304 244.488C60.6 244.488 66.84 242.904 72.024 239.736C77.304 236.472 81.336 231.816 84.12 225.768H99.816C96.072 235.368 90.12 242.808 81.96 248.088C73.8 253.272 64.248 255.864 53.304 255.864C43.992 255.864 35.496 253.704 27.816 249.384C20.232 244.968 14.232 238.872 9.81602 231.096C5.40002 223.32 3.19202 214.536 3.19202 204.744Z" stroke="black" stroke-width="5" stroke-linecap="round" stroke-linejoin="round"/>
<path d="M134.586 165.288V198.84H171.162V209.64H134.586V244.2H175.482V255H121.482V154.488H175.482V165.288H134.586Z" stroke="black" stroke-width="5" stroke-linecap="round" stroke-linejoin="round"/>
<path d="M250.319 255L226.415 213.96H210.575V255H197.471V154.632H229.871C237.455 154.632 243.839 155.928 249.023 158.52C254.303 161.112 258.239 164.616 260.831 169.032C263.423 173.448 264.719 178.488 264.719 184.152C264.719 191.064 262.703 197.16 258.671 202.44C254.735 207.72 248.783 211.224 240.815 212.952L266.015 255H250.319ZM210.575 203.448H229.871C236.975 203.448 242.303 201.72 245.855 198.264C249.407 194.712 251.183 190.008 251.183 184.152C251.183 178.2 249.407 173.592 245.855 170.328C242.399 167.064 237.071 165.432 229.871 165.432H210.575V203.448Z" stroke="black" stroke-width="5" stroke-linecap="round" stroke-linejoin="round"/>
<path d="M349.016 154.632V165.288H321.656V255H308.552V165.288H281.048V154.632H349.016Z" stroke="black" stroke-width="5" stroke-linecap="round" stroke-linejoin="round"/>
<path d="M380.41 154.632V255H367.306V154.632H380.41Z" stroke="black" stroke-width="5" stroke-linecap="round" stroke-linejoin="round"/>
<path d="M461.64 154.632V165.288H418.008V199.128H453.432V209.784H418.008V255H404.904V154.632H461.64Z" stroke="black" stroke-width="5" stroke-linecap="round" stroke-linejoin="round"/>
<path d="M492.73 154.632V255H479.626V154.632H492.73Z" stroke="black" stroke-width="5" stroke-linecap="round" stroke-linejoin="round"/>
<path d="M512.328 204.744C512.328 194.952 514.536 186.168 518.952 178.392C523.368 170.52 529.368 164.376 536.952 159.96C544.632 155.544 553.128 153.336 562.44 153.336C573.384 153.336 582.936 155.976 591.096 161.256C599.256 166.536 605.208 174.024 608.952 183.72H593.256C590.472 177.672 586.44 173.016 581.16 169.752C575.976 166.488 569.736 164.856 562.44 164.856C555.432 164.856 549.144 166.488 543.576 169.752C538.008 173.016 533.64 177.672 530.472 183.72C527.304 189.672 525.72 196.68 525.72 204.744C525.72 212.712 527.304 219.72 530.472 225.768C533.64 231.72 538.008 236.328 543.576 239.592C549.144 242.856 555.432 244.488 562.44 244.488C569.736 244.488 575.976 242.904 581.16 239.736C586.44 236.472 590.472 231.816 593.256 225.768H608.952C605.208 235.368 599.256 242.808 591.096 248.088C582.936 253.272 573.384 255.864 562.44 255.864C553.128 255.864 544.632 253.704 536.952 249.384C529.368 244.968 523.368 238.872 518.952 231.096C514.536 223.32 512.328 214.536 512.328 204.744Z" stroke="black" stroke-width="5" stroke-linecap="round" stroke-linejoin="round"/>
<path d="M689.946 232.68H646.17L638.106 255H624.282L660.57 155.208H675.69L711.834 255H698.01L689.946 232.68ZM686.202 222.024L668.058 171.336L649.914 222.024H686.202Z" stroke="black" stroke-width="5" stroke-linecap="round" stroke-linejoin="round"/>
<path d="M791.585 154.632V165.288H764.225V255H751.121V165.288H723.617V154.632H791.585Z" stroke="black" stroke-width="5" stroke-linecap="round" stroke-linejoin="round"/>
<path d="M822.979 154.632V255H809.875V154.632H822.979Z" stroke="black" stroke-width="5" stroke-linecap="round" stroke-linejoin="round"/>
<path d="M892.977 256.008C883.665 256.008 875.169 253.848 867.489 249.528C859.809 245.112 853.713 239.016 849.201 231.24C844.785 223.368 842.577 214.536 842.577 204.744C842.577 194.952 844.785 186.168 849.201 178.392C853.713 170.52 859.809 164.424 867.489 160.104C875.169 155.688 883.665 153.48 892.977 153.48C902.385 153.48 910.929 155.688 918.609 160.104C926.289 164.424 932.337 170.472 936.753 178.248C941.169 186.024 943.377 194.856 943.377 204.744C943.377 214.632 941.169 223.464 936.753 231.24C932.337 239.016 926.289 245.112 918.609 249.528C910.929 253.848 902.385 256.008 892.977 256.008ZM892.977 244.632C899.985 244.632 906.273 243 911.841 239.736C917.505 236.472 921.921 231.816 925.089 225.768C928.353 219.72 929.985 212.712 929.985 204.744C929.985 196.68 928.353 189.672 925.089 183.72C921.921 177.672 917.553 173.016 911.985 169.752C906.417 166.488 900.081 164.856 892.977 164.856C885.873 164.856 879.537 166.488 873.969 169.752C868.401 173.016 863.985 177.672 860.721 183.72C857.553 189.672 855.969 196.68 855.969 204.744C855.969 212.712 857.553 219.72 860.721 225.768C863.985 231.816 868.401 236.472 873.969 239.736C879.633 243 885.969 244.632 892.977 244.632Z" stroke="black" stroke-width="5" stroke-linecap="round" stroke-linejoin="round"/>
<path d="M1041.75 255H1028.64L975.94 175.08V255H962.836V154.488H975.94L1028.64 234.264V154.488H1041.75V255Z" stroke="black" stroke-width="5" stroke-linecap="round" stroke-linejoin="round"/>
<path d="M1098.07 256.008C1091.45 256.008 1085.49 254.856 1080.21 252.552C1075.03 250.152 1070.95 246.888 1067.97 242.76C1065 238.536 1063.46 233.688 1063.37 228.216H1077.33C1077.81 232.92 1079.73 236.904 1083.09 240.168C1086.55 243.336 1091.54 244.92 1098.07 244.92C1104.31 244.92 1109.21 243.384 1112.76 240.312C1116.41 237.144 1118.23 233.112 1118.23 228.216C1118.23 224.376 1117.17 221.256 1115.06 218.856C1112.95 216.456 1110.31 214.632 1107.14 213.384C1103.97 212.136 1099.7 210.792 1094.33 209.352C1087.7 207.624 1082.37 205.896 1078.34 204.168C1074.41 202.44 1071 199.752 1068.12 196.104C1065.33 192.36 1063.94 187.368 1063.94 181.128C1063.94 175.656 1065.33 170.808 1068.12 166.584C1070.9 162.36 1074.79 159.096 1079.78 156.792C1084.87 154.488 1090.68 153.336 1097.21 153.336C1106.61 153.336 1114.29 155.688 1120.25 160.392C1126.29 165.096 1129.7 171.336 1130.47 179.112H1116.07C1115.59 175.272 1113.57 171.912 1110.02 169.032C1106.47 166.056 1101.77 164.568 1095.91 164.568C1090.44 164.568 1085.97 166.008 1082.52 168.888C1079.06 171.672 1077.33 175.608 1077.33 180.696C1077.33 184.344 1078.34 187.32 1080.36 189.624C1082.47 191.928 1085.01 193.704 1087.99 194.952C1091.06 196.104 1095.33 197.448 1100.81 198.984C1107.43 200.808 1112.76 202.632 1116.79 204.456C1120.82 206.184 1124.28 208.92 1127.16 212.664C1130.04 216.312 1131.48 221.304 1131.48 227.64C1131.48 232.536 1130.18 237.144 1127.59 241.464C1125 245.784 1121.16 249.288 1116.07 251.976C1110.98 254.664 1104.98 256.008 1098.07 256.008Z" stroke="black" stroke-width="5" stroke-linecap="round" stroke-linejoin="round"/>
</svg>
