<svg width="404" height="109" viewBox="0 0 404 109" fill="none" xmlns="http://www.w3.org/2000/svg">
<path d="M80.7932 4.63198V105H67.6892V59.496H16.5692V105H3.46518V4.63198H16.5692V48.696H67.6892V4.63198H80.7932Z" stroke="black" stroke-width="5" stroke-linecap="round" stroke-linejoin="round"/>
<path d="M150.832 106.008C141.52 106.008 133.024 103.848 125.344 99.528C117.664 95.112 111.568 89.016 107.056 81.24C102.64 73.368 100.432 64.536 100.432 54.744C100.432 44.952 102.64 36.168 107.056 28.392C111.568 20.52 117.664 14.424 125.344 10.104C133.024 5.68798 141.52 3.47998 150.832 3.47998C160.24 3.47998 168.784 5.68798 176.464 10.104C184.144 14.424 190.192 20.472 194.608 28.248C199.024 36.024 201.232 44.856 201.232 54.744C201.232 64.632 199.024 73.464 194.608 81.24C190.192 89.016 184.144 95.112 176.464 99.528C168.784 103.848 160.24 106.008 150.832 106.008ZM150.832 94.632C157.84 94.632 164.128 93 169.696 89.736C175.36 86.472 179.776 81.816 182.944 75.768C186.208 69.72 187.84 62.712 187.84 54.744C187.84 46.68 186.208 39.672 182.944 33.72C179.776 27.672 175.408 23.016 169.84 19.752C164.272 16.488 157.936 14.856 150.832 14.856C143.728 14.856 137.392 16.488 131.824 19.752C126.256 23.016 121.84 27.672 118.576 33.72C115.408 39.672 113.824 46.68 113.824 54.744C113.824 62.712 115.408 69.72 118.576 75.768C121.84 81.816 126.256 86.472 131.824 89.736C137.488 93 143.824 94.632 150.832 94.632Z" stroke="black" stroke-width="5" stroke-linecap="round" stroke-linejoin="round"/>
<path d="M322.499 5.35198V105H309.395V30.696L276.275 105H267.059L233.795 30.552V105H220.691V5.35198H234.803L271.667 87.72L308.531 5.35198H322.499Z" stroke="black" stroke-width="5" stroke-linecap="round" stroke-linejoin="round"/>
<path d="M359.987 15.288V48.84H396.563V59.64H359.987V94.2H400.883V105H346.883V4.48799H400.883V15.288H359.987Z" stroke="black" stroke-width="5" stroke-linecap="round" stroke-linejoin="round"/>
</svg>
