<svg width="710" height="109" viewBox="0 0 710 109" fill="none" xmlns="http://www.w3.org/2000/svg">
<path d="M70.1086 34.008C70.1086 42.36 67.2286 49.32 61.4686 54.888C55.8046 60.36 47.1166 63.096 35.4046 63.096H16.1086V105H3.00458V4.632H35.4046C46.7326 4.632 55.3246 7.368 61.1806 12.84C67.1326 18.312 70.1086 25.368 70.1086 34.008ZM35.4046 52.296C42.7006 52.296 48.0766 50.712 51.5326 47.544C54.9886 44.376 56.7166 39.864 56.7166 34.008C56.7166 21.624 49.6126 15.432 35.4046 15.432H16.1086V52.296H35.4046Z" stroke="black" stroke-width="5" stroke-linecap="round" stroke-linejoin="round"/>
<path d="M141.403 105L117.499 63.96H101.659V105H88.5552V4.632H120.955C128.539 4.632 134.923 5.928 140.107 8.52C145.387 11.112 149.323 14.616 151.915 19.032C154.507 23.448 155.803 28.488 155.803 34.152C155.803 41.064 153.787 47.16 149.755 52.44C145.819 57.72 139.867 61.224 131.899 62.952L157.099 105H141.403ZM101.659 53.448H120.955C128.059 53.448 133.387 51.72 136.939 48.264C140.491 44.712 142.267 40.008 142.267 34.152C142.267 28.2 140.491 23.592 136.939 20.328C133.483 17.064 128.155 15.432 120.955 15.432H101.659V53.448Z" stroke="black" stroke-width="5" stroke-linecap="round" stroke-linejoin="round"/>
<path d="M223.829 106.008C214.517 106.008 206.021 103.848 198.341 99.528C190.661 95.112 184.565 89.016 180.053 81.24C175.637 73.368 173.429 64.536 173.429 54.744C173.429 44.952 175.637 36.168 180.053 28.392C184.565 20.52 190.661 14.424 198.341 10.104C206.021 5.688 214.517 3.48 223.829 3.48C233.237 3.48 241.781 5.688 249.461 10.104C257.141 14.424 263.189 20.472 267.605 28.248C272.021 36.024 274.229 44.856 274.229 54.744C274.229 64.632 272.021 73.464 267.605 81.24C263.189 89.016 257.141 95.112 249.461 99.528C241.781 103.848 233.237 106.008 223.829 106.008ZM223.829 94.632C230.837 94.632 237.125 93 242.693 89.736C248.357 86.472 252.773 81.816 255.941 75.768C259.205 69.72 260.837 62.712 260.837 54.744C260.837 46.68 259.205 39.672 255.941 33.72C252.773 27.672 248.405 23.016 242.837 19.752C237.269 16.488 230.933 14.856 223.829 14.856C216.725 14.856 210.389 16.488 204.821 19.752C199.253 23.016 194.837 27.672 191.573 33.72C188.405 39.672 186.821 46.68 186.821 54.744C186.821 62.712 188.405 69.72 191.573 75.768C194.837 81.816 199.253 86.472 204.821 89.736C210.485 93 216.821 94.632 223.829 94.632Z" stroke="black" stroke-width="5" stroke-linecap="round" stroke-linejoin="round"/>
<path d="M344.232 4.632V78.792C344.232 87.048 341.688 93.672 336.6 98.664C331.512 103.56 324.792 106.008 316.44 106.008C307.992 106.008 301.224 103.512 296.136 98.52C291.048 93.432 288.504 86.52 288.504 77.784H301.608C301.704 82.68 302.952 86.664 305.352 89.736C307.848 92.808 311.544 94.344 316.44 94.344C321.336 94.344 324.984 92.904 327.384 90.024C329.784 87.048 330.984 83.304 330.984 78.792V4.632H344.232Z" stroke="black" stroke-width="5" stroke-linecap="round" stroke-linejoin="round"/>
<path d="M385.311 15.288V48.84H421.887V59.64H385.311V94.2H426.207V105H372.207V4.488H426.207V15.288H385.311Z" stroke="black" stroke-width="5" stroke-linecap="round" stroke-linejoin="round"/>
<path d="M443.299 54.744C443.299 44.952 445.507 36.168 449.923 28.392C454.339 20.52 460.339 14.376 467.923 9.96C475.603 5.544 484.099 3.336 493.411 3.336C504.355 3.336 513.907 5.976 522.067 11.256C530.227 16.536 536.179 24.024 539.923 33.72H524.227C521.443 27.672 517.411 23.016 512.131 19.752C506.947 16.488 500.707 14.856 493.411 14.856C486.403 14.856 480.115 16.488 474.547 19.752C468.979 23.016 464.611 27.672 461.443 33.72C458.275 39.672 456.691 46.68 456.691 54.744C456.691 62.712 458.275 69.72 461.443 75.768C464.611 81.72 468.979 86.328 474.547 89.592C480.115 92.856 486.403 94.488 493.411 94.488C500.707 94.488 506.947 92.904 512.131 89.736C517.411 86.472 521.443 81.816 524.227 75.768H539.923C536.179 85.368 530.227 92.808 522.067 98.088C513.907 103.272 504.355 105.864 493.411 105.864C484.099 105.864 475.603 103.704 467.923 99.384C460.339 94.968 454.339 88.872 449.923 81.096C445.507 73.32 443.299 64.536 443.299 54.744Z" stroke="black" stroke-width="5" stroke-linecap="round" stroke-linejoin="round"/>
<path d="M623.366 4.632V15.288H596.006V105H582.902V15.288H555.398V4.632H623.366Z" stroke="black" stroke-width="5" stroke-linecap="round" stroke-linejoin="round"/>
<path d="M673.48 106.008C666.856 106.008 660.904 104.856 655.624 102.552C650.44 100.152 646.36 96.888 643.384 92.76C640.408 88.536 638.872 83.688 638.776 78.216H652.744C653.224 82.92 655.144 86.904 658.504 90.168C661.96 93.336 666.952 94.92 673.48 94.92C679.72 94.92 684.616 93.384 688.168 90.312C691.816 87.144 693.64 83.112 693.64 78.216C693.64 74.376 692.584 71.256 690.472 68.856C688.36 66.456 685.72 64.632 682.552 63.384C679.384 62.136 675.112 60.792 669.736 59.352C663.112 57.624 657.784 55.896 653.752 54.168C649.816 52.44 646.408 49.752 643.528 46.104C640.744 42.36 639.352 37.368 639.352 31.128C639.352 25.656 640.744 20.808 643.528 16.584C646.312 12.36 650.2 9.09599 655.192 6.79199C660.28 4.48799 666.088 3.336 672.616 3.336C682.024 3.336 689.704 5.688 695.656 10.392C701.704 15.096 705.112 21.336 705.88 29.112H691.48C691 25.272 688.984 21.912 685.432 19.032C681.88 16.056 677.176 14.568 671.32 14.568C665.848 14.568 661.384 16.008 657.928 18.888C654.472 21.672 652.744 25.608 652.744 30.696C652.744 34.344 653.752 37.32 655.768 39.624C657.88 41.928 660.424 43.704 663.4 44.952C666.472 46.104 670.744 47.448 676.216 48.984C682.84 50.808 688.168 52.632 692.2 54.456C696.232 56.184 699.688 58.92 702.568 62.664C705.448 66.312 706.888 71.304 706.888 77.64C706.888 82.536 705.592 87.144 703 91.464C700.408 95.784 696.568 99.288 691.48 101.976C686.392 104.664 680.392 106.008 673.48 106.008Z" stroke="black" stroke-width="5" stroke-linecap="round" stroke-linejoin="round"/>
</svg>
