<svg width="416" height="109" viewBox="0 0 416 109" fill="none" xmlns="http://www.w3.org/2000/svg">
<path d="M38.0198 106.008C31.3958 106.008 25.4438 104.856 20.1638 102.552C14.9798 100.152 10.8998 96.888 7.92383 92.76C4.94783 88.536 3.41183 83.688 3.31583 78.216H17.2838C17.7638 82.92 19.6838 86.904 23.0438 90.168C26.4998 93.336 31.4918 94.92 38.0198 94.92C44.2598 94.92 49.1558 93.384 52.7078 90.312C56.3558 87.144 58.1798 83.112 58.1798 78.216C58.1798 74.376 57.1238 71.256 55.0118 68.856C52.8998 66.456 50.2598 64.632 47.0918 63.384C43.9238 62.136 39.6518 60.792 34.2758 59.352C27.6518 57.624 22.3238 55.896 18.2918 54.168C14.3558 52.44 10.9478 49.752 8.06783 46.104C5.28383 42.36 3.89183 37.368 3.89183 31.128C3.89183 25.656 5.28383 20.808 8.06783 16.584C10.8518 12.36 14.7398 9.096 19.7318 6.792C24.8198 4.488 30.6278 3.336 37.1558 3.336C46.5638 3.336 54.2438 5.688 60.1958 10.392C66.2438 15.096 69.6518 21.336 70.4198 29.112H56.0198C55.5398 25.272 53.5238 21.912 49.9718 19.032C46.4198 16.056 41.7158 14.568 35.8598 14.568C30.3878 14.568 25.9238 16.008 22.4678 18.888C19.0118 21.672 17.2838 25.608 17.2838 30.696C17.2838 34.344 18.2918 37.32 20.3078 39.624C22.4198 41.928 24.9638 43.704 27.9398 44.952C31.0118 46.104 35.2838 47.448 40.7558 48.984C47.3798 50.808 52.7078 52.632 56.7398 54.456C60.7718 56.184 64.2278 58.92 67.1078 62.664C69.9878 66.312 71.4278 71.304 71.4278 77.64C71.4278 82.536 70.1318 87.144 67.5398 91.464C64.9478 95.784 61.1078 99.288 56.0198 101.976C50.9318 104.664 44.9318 106.008 38.0198 106.008Z" stroke="black" stroke-width="5" stroke-linecap="round" stroke-linejoin="round"/>
<path d="M147.303 105L105.975 59.208V105H92.8715V4.632H105.975V51.144L147.447 4.632H164.007L118.503 54.888L164.439 105H147.303Z" stroke="black" stroke-width="5" stroke-linecap="round" stroke-linejoin="round"/>
<path d="M194.339 4.632V105H181.235V4.632H194.339Z" stroke="black" stroke-width="5" stroke-linecap="round" stroke-linejoin="round"/>
<path d="M231.936 94.344H267.072V105H218.832V4.632H231.936V94.344Z" stroke="black" stroke-width="5" stroke-linecap="round" stroke-linejoin="round"/>
<path d="M296.252 94.344H331.388V105H283.148V4.632H296.252V94.344Z" stroke="black" stroke-width="5" stroke-linecap="round" stroke-linejoin="round"/>
<path d="M379.289 106.008C372.665 106.008 366.713 104.856 361.433 102.552C356.249 100.152 352.169 96.888 349.193 92.76C346.217 88.536 344.681 83.688 344.585 78.216H358.553C359.033 82.92 360.953 86.904 364.313 90.168C367.769 93.336 372.761 94.92 379.289 94.92C385.529 94.92 390.425 93.384 393.977 90.312C397.625 87.144 399.449 83.112 399.449 78.216C399.449 74.376 398.393 71.256 396.281 68.856C394.169 66.456 391.529 64.632 388.361 63.384C385.193 62.136 380.921 60.792 375.545 59.352C368.921 57.624 363.593 55.896 359.561 54.168C355.625 52.44 352.217 49.752 349.337 46.104C346.553 42.36 345.161 37.368 345.161 31.128C345.161 25.656 346.553 20.808 349.337 16.584C352.121 12.36 356.009 9.096 361.001 6.792C366.089 4.488 371.897 3.336 378.425 3.336C387.833 3.336 395.513 5.688 401.465 10.392C407.513 15.096 410.921 21.336 411.689 29.112H397.289C396.809 25.272 394.793 21.912 391.241 19.032C387.689 16.056 382.985 14.568 377.129 14.568C371.657 14.568 367.193 16.008 363.737 18.888C360.281 21.672 358.553 25.608 358.553 30.696C358.553 34.344 359.561 37.32 361.577 39.624C363.689 41.928 366.233 43.704 369.209 44.952C372.281 46.104 376.553 47.448 382.025 48.984C388.649 50.808 393.977 52.632 398.009 54.456C402.041 56.184 405.497 58.92 408.377 62.664C411.257 66.312 412.697 71.304 412.697 77.64C412.697 82.536 411.401 87.144 408.809 91.464C406.217 95.784 402.377 99.288 397.289 101.976C392.201 104.664 386.201 106.008 379.289 106.008Z" stroke="black" stroke-width="5" stroke-linecap="round" stroke-linejoin="round"/>
</svg>
